<svg width="21" height="21" viewBox="0 0 21 21" fill="none" xmlns="http://www.w3.org/2000/svg">
<path d="M11.5556 6.27778V2.05556C11.5556 1.75648 11.6569 1.50561 11.8596 1.30294C12.0615 1.10098 12.312 1 12.6111 1H18.9444C19.2435 1 19.494 1.10098 19.696 1.30294C19.8987 1.50561 20 1.75648 20 2.05556V6.27778C20 6.57685 19.8987 6.82737 19.696 7.02933C19.494 7.232 19.2435 7.33333 18.9444 7.33333H12.6111C12.312 7.33333 12.0615 7.232 11.8596 7.02933C11.6569 6.82737 11.5556 6.57685 11.5556 6.27778ZM1 10.5V2.05556C1 1.75648 1.10133 1.50561 1.304 1.30294C1.50596 1.10098 1.75648 1 2.05556 1H8.38889C8.68796 1 8.93883 1.10098 9.1415 1.30294C9.34346 1.50561 9.44444 1.75648 9.44444 2.05556V10.5C9.44444 10.7991 9.34346 11.0496 9.1415 11.2516C8.93883 11.4542 8.68796 11.5556 8.38889 11.5556H2.05556C1.75648 11.5556 1.50596 11.4542 1.304 11.2516C1.10133 11.0496 1 10.7991 1 10.5ZM11.5556 18.9444V10.5C11.5556 10.2009 11.6569 9.95006 11.8596 9.74739C12.0615 9.54543 12.312 9.44444 12.6111 9.44444H18.9444C19.2435 9.44444 19.494 9.54543 19.696 9.74739C19.8987 9.95006 20 10.2009 20 10.5V18.9444C20 19.2435 19.8987 19.494 19.696 19.696C19.494 19.8987 19.2435 20 18.9444 20H12.6111C12.312 20 12.0615 19.8987 11.8596 19.696C11.6569 19.494 11.5556 19.2435 11.5556 18.9444ZM1 18.9444V14.7222C1 14.4231 1.10133 14.1723 1.304 13.9696C1.50596 13.7676 1.75648 13.6667 2.05556 13.6667H8.38889C8.68796 13.6667 8.93883 13.7676 9.1415 13.9696C9.34346 14.1723 9.44444 14.4231 9.44444 14.7222V18.9444C9.44444 19.2435 9.34346 19.494 9.1415 19.696C8.93883 19.8987 8.68796 20 8.38889 20H2.05556C1.75648 20 1.50596 19.8987 1.304 19.696C1.10133 19.494 1 19.2435 1 18.9444ZM3.11111 9.44444H7.33333V3.11111H3.11111V9.44444ZM13.6667 17.8889H17.8889V11.5556H13.6667V17.8889ZM13.6667 5.22222H17.8889V3.11111H13.6667V5.22222ZM3.11111 17.8889H7.33333V15.7778H3.11111V17.8889Z" fill="black"/>
</svg>